# xmcd CD database file
# Copyright (C) 1995 Ti Kan
#
# Track frame offsets:
#	150
#	17132
#	32477
#	48017
#	63822
#	76467
#	93705
#	110425
#	125750
#	143887
#	162410
#	179357
#
# Disc length: 2686 seconds
#
# Revision: 1
# Processed by: cddbd v1.4b41PL1 Copyright (c) Steve Scherf et al.
# Submitted via: NotifyCDPlayer(CDDB) 1.50beta7
#
DISCID=9c0a7c0c
DTITLE=Billy Ray Cyrus - Some Gave All (Danish vesion)
DYEAR=1900
DGENRE=
TTITLE0=Could've Been Me
TTITLE1=Achy Breaky Heart
TTITLE2=She's Not Crying Anymore
TTITLE3=Wher'm I Gonna Live?
TTITLE4=These Boots Are Made For Walkin'
TTITLE5=Someday, Somewhere, Somehow
TTITLE6=Never Thought I'd Fall In Love With You
TTITLE7=Ain't No Good Goodbye
TTITLE8=I'm So Miserable
TTITLE9=Some Gave All
TTITLE10=Could've Been Me (Acoustic Mix)
TTITLE11=Achy Breaky Heart (Live)
EXTD=
EXTT0=
EXTT1=
EXTT2=
EXTT3=
EXTT4=
EXTT5=
EXTT6=
EXTT7=
EXTT8=
EXTT9=
EXTT10=
EXTT11=
PLAYORDER=
